<svg id="Line" xmlns="http://www.w3.org/2000/svg" viewBox="0 0 64 64"><defs><style>.cls-1{fill:#231f20;}</style></defs><title>1</title><path class="cls-1" d="M17.08008,23.355l8.80908,5.979a1.00034,1.00034,0,0,0,1.123-1.6553l-7.58979-5.15134L27.01221,17.375a.99995.99995,0,1,0-1.123-1.65479l-8.80908,5.98A1.00676,1.00676,0,0,0,17.08008,23.355Z"/><path class="cls-1" d="M36.72168,29.06787a1.001,1.001,0,0,0,1.38916.26611l8.80908-5.979a1.00676,1.00676,0,0,0,0-1.65478l-8.80906-5.98A.99995.99995,0,1,0,36.98779,17.375l7.58985,5.15234-7.58985,5.15137A1.00034,1.00034,0,0,0,36.72168,29.06787Z"/><path class="cls-1" d="M28.17383,32.44678a1.00141,1.00141,0,0,0,1.293-.57325l6.93261-17.97265a1.00009,1.00009,0,0,0-1.86621-.71973L27.60059,31.15381A1.00034,1.00034,0,0,0,28.17383,32.44678Z"/><path class="cls-1" d="M55,8.84229H9a5.00588,5.00588,0,0,0-5,5v24a5.00589,5.00589,0,0,0,5,5H22.10889V53.15771H10.95654a1.00013,1.00013,0,0,0,.00006,2H53.04346a1.0002,1.0002,0,0,0-.00008-2H41.89111V42.84229H55a5.00589,5.00589,0,0,0,5-5v-24A5.00588,5.00588,0,0,0,55,8.84229Zm-46,2H55a3.00328,3.00328,0,0,1,3,3V34.21191H6V13.84229A3.00328,3.00328,0,0,1,9,10.84229ZM39.89111,53.15771H24.10889V42.84229H39.89111ZM55,40.84229c-7.76809.001-46,0-46,0a3.00328,3.00328,0,0,1-3-3V36.21191H58v1.63038A3.00328,3.00328,0,0,1,55,40.84229Z"/><path class="cls-1" d="M34.03857,37.52734H29.96143a1.00019,1.00019,0,0,0,.00006,2h4.07708A1.00019,1.00019,0,0,0,34.03857,37.52734Z"/></svg>